<svg xmlns="http://www.w3.org/2000/svg" fill="none" viewBox="0 0 16 16">
    <svg xmlns="http://www.w3.org/2000/svg" width="16" height="16" viewBox="0 0 16 16" fill="none">
        <path xmlns="http://www.w3.org/2000/svg" d="M7.99992 2.66663V13.3333M5.33325 2.66663V3.99996C5.33325 4.7072 5.6142 5.38548 6.1143 5.88558C6.6144 6.38567 7.29267 6.66663 7.99992 6.66663C8.70716 6.66663 9.38544 6.38567 9.88554 5.88558C10.3856 5.38548 10.6666 4.7072 10.6666 3.99996V2.66663" stroke="#004E98" stroke-linecap="round" stroke-linejoin="round"/>
        <path xmlns="http://www.w3.org/2000/svg" d="M2.66663 2.66663V3.99996C2.66663 5.41445 3.22853 6.771 4.22872 7.7712C5.22892 8.77139 6.58547 9.33329 7.99996 9.33329C9.41445 9.33329 10.771 8.77139 11.7712 7.7712C12.7714 6.771 13.3333 5.41445 13.3333 3.99996V2.66663M6.66663 13.3333H9.33329" stroke="#004E98" stroke-linecap="round" stroke-linejoin="round"/>
    </svg>
</svg>